<?xml version="1.0" encoding="iso-8859-1"?>
<!-- Generator: Adobe Illustrator 20.0.0, SVG Export Plug-In . SVG Version: 6.00 Build 0)  -->
<svg version="1.1" id="Layer_1" xmlns="http://www.w3.org/2000/svg" xmlns:xlink="http://www.w3.org/1999/xlink" x="0px" y="0px"
	 viewBox="0 0 96 96" enable-background="new 0 0 96 96" xml:space="preserve">
<path fill="#D0D1D3" d="M48,12c-19.85,0-36,16.15-36,36s16.15,36,36,36s36-16.15,36-36S67.85,12,48,12L48,12z"/>
<path fill="#FFFFFF" d="M48,13c19.33,0,35,15.67,35,35S67.33,83,48,83S13,67.33,13,48S28.67,13,48,13"/>
<circle fill="#F7F3F2" cx="48" cy="48" r="34"/>
<path opacity="0.3" fill="#EDD9CE" enable-background="new    " d="M55.106,74.015c-18.778,0-34-15.222-34-34
	c0-6.755,1.978-13.045,5.375-18.337C18.864,27.914,14,37.388,14,48c0,18.778,15.222,34,34,34c12.022,0,22.579-6.245,28.625-15.663
	C70.763,71.134,63.272,74.015,55.106,74.015z"/>
<path fill="#F7E8DF" d="M65.831,57.506l-3.53,14.206c0,0-6.247,1.883-14.633,1.883c-8.675,0-14.307-2.913-14.307-2.913L30.05,57.506
	"/>
<path opacity="0.4" fill="#EDD3C5" enable-background="new    " d="M35.265,68.05c11.557,0.507,21.887-3.333,27.974-10.319
	l2.755,0.121l-3.837,13.016c0,0-5.674,2.718-14.214,2.343c-8.255-0.362-14.326-2.439-14.326-2.439l-0.551-2.809
	C33.792,68.031,34.526,68.018,35.265,68.05z"/>
<path opacity="0.8" fill="#EDD3C5" enable-background="new    " d="M64.721,60.737l1.11-4.707h-35.78l1.031,4.341
	c4.346,0.647,11.205,1.249,18.803,1.265C55.314,61.647,61.1,61.198,64.721,60.737z"/>
<path opacity="0.6" fill="#F7E8DF" enable-background="new    " d="M40.548,57.03H30.052l3.311,13.414c0,0,3.123,1.493,8.294,2.318
	L40.548,57.03z"/>
<path opacity="0.4" fill="#FCF4F0" enable-background="new    " d="M35.444,57.03h-5.392l3.311,13.414c0,0,1.773,0.798,4.861,1.602
	L35.444,57.03z"/>
<path fill="#EDD3C5" d="M42.763,73.038c1.496,0.194,3.134,0.438,4.906,0.438c8.386,0,14.633-2.062,14.633-2.062l3.53-14.384h-0.287
	C62.565,66.03,53.724,71.604,42.763,73.038z"/>
<path fill="none" stroke="#DDBEA4" stroke-width="1.6" stroke-linecap="round" stroke-linejoin="round" stroke-miterlimit="10" d="
	M65.831,57.506l-2.8,11.269c-0.464,1.866-1.952,3.298-3.837,3.676c-2.628,0.528-6.727,1.144-11.526,1.144
	c-5.128,0-9.192-1.018-11.659-1.85c-1.615-0.545-2.848-1.858-3.263-3.512l-2.695-10.727"/>
<path opacity="0.3" fill="#EDD3C5" enable-background="new    " d="M64.721,60.737l1.11-4.707h-35.78l1.031,4.341
	c4.346,0.647,11.205,1.249,18.803,1.265C55.314,61.647,61.1,61.198,64.721,60.737z"/>
<path fill="#FFF5F3" d="M68.729,43.255c-0.924-0.086-1.829-0.026-1.512-0.025c1.543-2.069,1.493-4.209,1.343-5.142
	c-0.395-2.454-2.431-5.182-5.667-5.564c-1.398-0.165-2.908,0-2.908,0c-0.301-0.889-2.146-5.92-6.194-8.679
	c-3.821-2.604-8.398-2.763-8.398-2.763s0.892,4.505-1.227,6.068c-1.469,1.083-3.905,0.773-5.407,1.753
	c-1.99,1.298-2.611,3.11-2.753,3.621c0,0-1.397-0.073-1.854,0c-3.146,0.499-5.167,2.453-5.675,5.514
	c-0.222,1.335-0.074,2.715,0.535,4.508c0,0-0.843,0.021-1.309,0.105c-3.169,0.572-5.633,3.611-5.315,7.441
	c0.281,3.382,2.641,5.492,5.701,6.234c3.595,0.871,12.103,1.926,21.797,1.948c7.947,0.018,16.664-1.032,18.226-1.63
	c2.957-1.132,5.205-3.171,5.505-6.552C73.882,47.074,71.853,43.545,68.729,43.255z"/>
<path fill="#FFFFFF" d="M25.101,53.028c-0.318-4.232,2.146-7.59,5.315-8.222c0.467-0.093,1.31-0.116,1.31-0.116
	c-0.608-1.981-0.756-3.505-0.535-4.981c0.508-3.382,2.529-5.541,5.675-6.093c0.458-0.08,1.854,0,1.854,0
	c0.141-0.565,0.763-2.566,2.753-4.001c1.503-1.083,3.939-0.74,5.407-1.937c1.702-1.388,1.462-4.868,1.301-6.186
	c-1.634-0.37-2.79-0.411-2.79-0.411s0.892,4.505-1.227,6.068c-1.469,1.083-3.905,0.773-5.407,1.753
	c-1.99,1.298-2.611,3.11-2.753,3.621c0,0-1.397-0.073-1.854,0c-3.146,0.5-5.167,2.453-5.675,5.514
	c-0.222,1.335-0.073,2.715,0.535,4.508c0,0-0.843,0.021-1.31,0.105c-3.169,0.572-5.633,3.612-5.315,7.441
	c0.198,2.378,1.435,4.112,3.208,5.198C25.343,54.602,25.164,53.856,25.101,53.028z"/>
<circle fill="#E5AC98" cx="36.252" cy="39.46" r="1.3"/>
<polyline fill="none" stroke="#E5AC98" stroke-width="1.2" stroke-linecap="round" stroke-linejoin="round" stroke-miterlimit="10" points="
	54.725,41.083 51.476,39.58 51.476,39.558 54.725,38.055 "/>
<path opacity="0.8" fill="#E5AC98" enable-background="new    " d="M44.262,52.24c-3.543,0-6.448-2.735-6.718-6.209
	c-0.022-0.288,0.22-0.53,0.51-0.53h12.417c0.289,0,0.532,0.242,0.51,0.53C50.71,49.505,47.805,52.24,44.262,52.24z"/>
<path opacity="0.6" fill="#FFF5F3" enable-background="new    " d="M40.951,50.787c0.867-0.82,2.034-1.326,3.322-1.326
	c1.277,0,2.436,0.498,3.301,1.306c-0.867,0.82-2.034,1.326-3.322,1.326C42.974,52.094,41.816,51.595,40.951,50.787z"/>
<path opacity="0.95" fill="#FFFFFF" enable-background="new    " d="M41.204,45.913c-0.011-0.126,0.08-0.237,0.206-0.248
	c0.932-0.079,2.017-0.16,2.555-0.163c0.578-0.004,1.842,0.082,2.767,0.151c0.122,0.009,0.21,0.112,0.207,0.234l-0.034,1.236
	c-0.004,0.129-0.114,0.23-0.243,0.222c-1.034-0.062-2.066-0.136-2.771-0.13c-0.601,0.005-1.457,0.038-2.346,0.079
	c-0.123,0.006-0.229-0.086-0.24-0.209L41.204,45.913z"/>
<path fill="none" stroke="#E5AC98" stroke-width="1.2" stroke-linecap="round" stroke-linejoin="round" stroke-miterlimit="10" d="
	M44.262,52.24c-3.543,0-6.448-2.735-6.718-6.209c-0.022-0.288,0.22-0.53,0.51-0.53c0,0,2.993-0.406,6.209-0.406
	c3.504,0,6.209,0.406,6.209,0.406c0.289,0,0.532,0.242,0.51,0.53C50.71,49.505,47.805,52.24,44.262,52.24z"/>
<line fill="none" stroke="#DDBEA4" stroke-width="1.6" stroke-linecap="round" stroke-linejoin="round" stroke-miterlimit="10" x1="60.049" y1="58.163" x2="59.12" y2="65.798"/>
<line fill="none" stroke="#DDBEA4" stroke-width="1.6" stroke-linecap="round" stroke-linejoin="round" stroke-miterlimit="10" x1="54.404" y1="58.274" x2="53.958" y2="68.728"/>
<line fill="none" stroke="#DDBEA4" stroke-width="1.6" stroke-linecap="round" stroke-linejoin="round" stroke-miterlimit="10" x1="49.104" y1="58.274" x2="49.104" y2="64.3"/>
<circle fill="#E5AC98" cx="58.025" cy="46.095" r="0.6"/>
<circle fill="#E5AC98" cx="63.025" cy="47.095" r="0.65"/>
<circle fill="#E5AC98" cx="60.025" cy="47.595" r="0.5"/>
<circle fill="#E5AC98" cx="61.025" cy="45.501" r="0.55"/>
<circle fill="#E5AC98" cx="30.59" cy="44.864" r="0.45"/>
<circle fill="#E5AC98" cx="34.056" cy="45.318" r="0.55"/>
<circle fill="#E5AC98" cx="32.609" cy="43.998" r="0.45"/>
<circle fill="#FFFFFF" cx="47.941" cy="29.574" r="0.55"/>
<circle fill="#FFFFFF" cx="52.032" cy="28.283" r="0.55"/>
<circle fill="#FFFFFF" cx="49.531" cy="25.59" r="0.55"/>
<path opacity="0.4" fill="#F7E0D7" enable-background="new    " d="M68.729,43.255c-0.335-0.031-0.667-0.043-0.939-0.045
	c0.202,3.951-1.811,6.603-4.674,8.334c-3.091,1.868-10.357,3.319-18.562,4.385c-4.772,0.62-9.294,0.928-13.145,1.028
	c4.36,0.68,11.067,1.3,18.475,1.317c7.947,0.018,16.664-1.032,18.226-1.63c2.957-1.132,5.205-3.171,5.505-6.552
	C73.882,47.074,71.853,43.545,68.729,43.255z"/>
<path opacity="0.5" fill="#FCE4D9" enable-background="new    " d="M68.729,43.255c-0.661-0.061-1.304-0.048-1.506-0.035
	c1.535-2.066,1.486-4.2,1.336-5.132c-0.395-2.454-2.431-5.182-5.667-5.564c-1.398-0.165-2.908,0-2.908,0
	c-0.301-0.889-2.146-5.92-6.194-8.679c-2.841-1.937-6.097-2.52-7.582-2.692c1.49,0.646,3.307,1.654,4.87,3.174
	c3.513,3.415,4.465,8.688,4.608,9.616c0,0,1.515,0.097,2.865,0.5c3.122,0.933,4.659,3.97,4.625,6.456
	c-0.013,0.944-0.332,3.055-2.199,4.826c0.2,0.022,0.836,0.12,1.477,0.294c3.028,0.823,4.419,4.648,3.636,7.575
	c-0.458,1.713-1.385,2.965-2.602,3.865c2.311-0.28,4.012-0.581,4.62-0.814c2.957-1.132,5.205-3.171,5.505-6.552
	C73.882,47.074,71.853,43.545,68.729,43.255z"/>
<path fill="none" stroke="#E5AC98" stroke-width="1.6" stroke-linecap="round" stroke-linejoin="round" stroke-miterlimit="10" d="
	M68.729,43.255c-0.924-0.086-1.829-0.026-1.512-0.025c1.543-2.069,1.475-4.206,1.343-5.142c-0.404-2.857-2.973-5.222-6.14-5.597
	c-1.45-0.172-2.435,0.034-2.435,0.034c-0.301-0.889-2.146-5.92-6.194-8.679c-3.821-2.604-8.398-2.763-8.398-2.763
	s0.892,4.505-1.227,6.068c-1.469,1.083-3.535,0.685-5.407,1.753c-2.064,1.177-2.894,2.811-3.035,3.322c0,0-1.118,0.208-1.572,0.299
	c-3.508,0.707-5.374,3.246-5.675,5.514c-0.178,1.342-0.074,2.715,0.535,4.508c0,0-0.843,0.021-1.309,0.105
	c-3.169,0.572-5.633,3.611-5.315,7.441c0.281,3.382,2.641,5.492,5.701,6.234c3.595,0.871,12.103,1.926,21.797,1.948
	c7.947,0.018,16.664-1.032,18.226-1.63c2.957-1.132,5.205-3.171,5.505-6.552C73.882,47.074,71.853,43.545,68.729,43.255z"/>
</svg>
