<?xml version="1.0" encoding="iso-8859-1"?>
<!-- Generator: Adobe Illustrator 20.0.0, SVG Export Plug-In . SVG Version: 6.00 Build 0)  -->
<svg version="1.1" id="Layer_1" xmlns="http://www.w3.org/2000/svg" xmlns:xlink="http://www.w3.org/1999/xlink" x="0px" y="0px"
	 viewBox="0 0 96 96" enable-background="new 0 0 96 96" xml:space="preserve">
<path fill="#D0D1D3" d="M48,12c-19.85,0-36,16.15-36,36s16.15,36,36,36s36-16.15,36-36S67.85,12,48,12L48,12z"/>
<path fill="#FFFFFF" d="M48,13c19.33,0,35,15.67,35,35S67.33,83,48,83S13,67.33,13,48S28.67,13,48,13"/>
<circle fill="#F2F5F9" cx="48" cy="48" r="34"/>
<path opacity="0.9" fill="#E4EBF4" enable-background="new    " d="M55.106,74.015c-18.778,0-34-15.222-34-34
	c0-6.755,1.978-13.045,5.375-18.337C18.864,27.914,14,37.388,14,48c0,18.778,15.222,34,34,34c12.022,0,22.579-6.245,28.625-15.663
	C70.763,71.134,63.272,74.015,55.106,74.015z"/>
<polyline fill="#E4EBF4" points="30.374,27.994 30.306,27.994 22.52,39.824 22.52,39.824 22.632,63.741 39.061,69.049 
	38.929,41.925 30.306,27.994 "/>
<polygon opacity="0.4" fill="#CFDAE5" enable-background="new    " points="29,29.704 22.43,39.824 22.496,63.741 29,65.857 "/>
<polygon opacity="0.5" fill="#CFDAE5" enable-background="new    " points="26.497,32.628 22.452,38.773 22.563,62.691 
	26.65,64.011 "/>
<path opacity="0.2" fill="#C0CDDD" enable-background="new    " d="M24.839,36.3l-2.319,3.524l0.111,23.917l16.429,5.308
	l-0.052-10.783C31.426,53.424,26.087,45.498,24.839,36.3z"/>
<path opacity="0.4" fill="#C0CDDD" enable-background="new    " d="M24.344,40.274c0-1.199,0.077-2.379,0.211-3.541l-2.034,3.091
	l0.111,23.917l16.429,5.308l-0.014-2.912C30.283,61.112,24.344,51.415,24.344,40.274z"/>
<polyline fill="#EBF2FC" points="38.932,42.508 39.006,68.358 72.924,66.518 72.796,41.817 "/>
<path opacity="0.2" fill="#C0CDDD" enable-background="new    " d="M40.444,42.73c0-0.085,0.006-0.168,0.006-0.253l-1.519,0.031
	l0.074,25.85l13.853-0.751C45.339,62.023,40.444,52.964,40.444,42.73z"/>
<polygon opacity="0.5" fill="#CADAEA" enable-background="new    " points="72.796,40.789 38.932,41.48 38.948,47.214 
	72.822,45.821 "/>
<path opacity="0.9" fill="#7FA9DB" enable-background="new    " d="M53.539,67.221v-8.367c0-2.017,1.763-3.667,3.918-3.667l0,0
	c2.155,0,3.918,1.65,3.918,3.667v7.405"/>
<path opacity="0.7" fill="#6884BC" enable-background="new    " d="M53,61.216v6.005l8-0.322V64.17C59,62.434,57,61.291,53,61.216z"
	/>
<line fill="none" stroke="#7594C6" stroke-width="1.6" stroke-linecap="round" stroke-linejoin="round" stroke-miterlimit="10" x1="38.942" y1="41.817" x2="38.942" y2="68.358"/>
<line fill="none" stroke="#7594C6" stroke-width="1.6" stroke-linecap="round" stroke-linejoin="round" stroke-miterlimit="10" x1="72.863" y1="42.92" x2="72.863" y2="66.518"/>
<polyline fill="#9AB7E2" points="30.004,27.808 65.723,27.808 76.342,43.1 76.342,43.1 40.386,44.166 29.846,27.898 "/>
<polygon opacity="0.3" fill="#7FA9DB" enable-background="new    " points="42.986,27.994 43.144,28 30.004,28 29.846,27.994 
	40.386,44.214 53.279,43.856 "/>
<polygon opacity="0.6" fill="#7FA9DB" enable-background="new    " points="37.504,27.899 37.662,27.994 30.104,27.994 
	29.945,27.899 40.485,44.075 47.901,43.902 "/>
<line fill="none" stroke="#7594C6" stroke-width="1.6" stroke-linecap="round" stroke-linejoin="round" stroke-miterlimit="10" x1="32.55" y1="32.072" x2="49.788" y2="31.776"/>
<line fill="none" stroke="#7594C6" stroke-width="1.6" stroke-linecap="round" stroke-linejoin="round" stroke-miterlimit="10" x1="57.722" y1="33.979" x2="69.557" y2="33.776"/>
<line fill="none" stroke="#7594C6" stroke-width="1.6" stroke-linecap="round" stroke-linejoin="round" stroke-miterlimit="10" x1="53.732" y1="37.204" x2="60.652" y2="37.085"/>
<polyline fill="none" stroke="#7594C6" stroke-width="1.6" stroke-linecap="round" stroke-linejoin="round" stroke-miterlimit="10" points="
	30.004,27.808 65.723,27.808 76.342,43.1 76.342,43.1 40.386,44.166 29.846,27.898 "/>
<line fill="none" stroke="#7594C6" stroke-width="1.6" stroke-linecap="round" stroke-linejoin="round" stroke-miterlimit="10" x1="20.342" y1="42.034" x2="29.777" y2="27.898"/>
<line fill="none" stroke="#7594C6" stroke-width="1.6" stroke-linecap="round" stroke-linejoin="round" stroke-miterlimit="10" x1="22.876" y1="39.761" x2="22.876" y2="63.164"/>
<line fill="none" stroke="#7594C6" stroke-width="1.6" stroke-linecap="round" stroke-linejoin="round" stroke-miterlimit="10" x1="39.006" y1="68.358" x2="22.93" y2="63.164"/>
<circle fill="#7594C6" cx="47.625" cy="50.798" r="1.396"/>
<circle fill="#7594C6" cx="66.127" cy="50.147" r="1.396"/>
<path fill="#FFFFFF" d="M57.552,55.365c-1.808,0-3.449,1.315-3.449,2.923v0.392L61,58.342v-0.054
	C61,56.68,59.359,55.365,57.552,55.365z"/>
<polygon fill="#FFFFFF" points="53.618,65.012 53.618,67.221 61.353,66.899 61.353,64.635 "/>
<path fill="none" stroke="#7594C6" stroke-width="1.6" stroke-linecap="round" stroke-linejoin="round" stroke-miterlimit="10" d="
	M53.539,67.221v-8.367c0-2.017,1.763-3.667,3.918-3.667l0,0c2.155,0,3.918,1.65,3.918,3.667v7.405"/>
<line fill="none" stroke="#7594C6" stroke-width="1.6" stroke-linecap="round" stroke-linejoin="round" stroke-miterlimit="10" x1="39.006" y1="68.358" x2="72.625" y2="66.534"/>
<line fill="none" stroke="#9AB7E2" stroke-linecap="round" stroke-linejoin="round" stroke-miterlimit="10" x1="44.856" y1="56.337" x2="44.119" y2="57.57"/>
<line fill="none" stroke="#9AB7E2" stroke-linecap="round" stroke-linejoin="round" stroke-miterlimit="10" x1="46.337" y1="56.609" x2="45.926" y2="57.297"/>
<line fill="none" stroke="#9AB7E2" stroke-linecap="round" stroke-linejoin="round" stroke-miterlimit="10" x1="67.734" y1="55.984" x2="66.875" y2="57.423"/>
<line fill="none" stroke="#9AB7E2" stroke-linecap="round" stroke-linejoin="round" stroke-miterlimit="10" x1="69.336" y1="56.359" x2="68.925" y2="57.047"/>
<polygon opacity="0.7" fill="none" stroke="#7594C6" stroke-width="1.6" stroke-linecap="round" stroke-linejoin="round" stroke-miterlimit="10" enable-background="new    " points="
	33.041,50.848 33.041,45.298 27.902,44.476 27.902,49.615 "/>
</svg>
