<?xml version="1.0" encoding="iso-8859-1"?>
<!-- Generator: Adobe Illustrator 20.0.0, SVG Export Plug-In . SVG Version: 6.00 Build 0)  -->
<svg version="1.1" id="Layer_1" xmlns="http://www.w3.org/2000/svg" xmlns:xlink="http://www.w3.org/1999/xlink" x="0px" y="0px"
	 viewBox="0 0 96 96.2" enable-background="new 0 0 96 96.2" xml:space="preserve">
<path fill="#D0D1D3" d="M48,12c-19.85,0-36,16.15-36,36s16.15,36,36,36s36-16.15,36-36S67.851,12,48,12L48,12z"/>
<path fill="#FFFFFF" d="M48,13c19.33,0,35,15.67,35,35S67.33,83,48,83S13,67.33,13,48S28.67,13,48,13"/>
<circle fill="#EFF9ED" cx="48" cy="48" r="34"/>
<path opacity="0.6" fill="#D3F4D3" enable-background="new    " d="M55.106,74.015c-18.778,0-34-15.222-34-34
	c0-6.755,1.978-13.045,5.375-18.337C18.864,27.914,14,37.388,14,48c0,18.778,15.222,34,34,34c12.022,0,22.579-6.245,28.625-15.663
	C70.763,71.134,63.272,74.015,55.106,74.015z"/>
<polygon fill="#7ACCA9" points="49.447,65.392 51.294,71.783 54.424,74.801 41.245,74.801 44.111,71.865 44.712,64.698 "/>
<path fill="#57C191" d="M47.181,67.56c0-0.453,0.05-0.949,0.123-1.385l-2.938-0.458l-0.542,6.545L41.245,75h10.189
	C48.86,73,47.181,70.575,47.181,67.56z"/>
<polygon fill="none" stroke="#17AA71" stroke-width="1.5" stroke-linecap="round" stroke-linejoin="round" stroke-miterlimit="10" points="
	49.447,65.392 51.294,71.783 54.424,74.801 41.245,74.801 44.111,71.865 44.712,64.698 "/>
<path fill="#BDEFD6" d="M23.906,51.242c-0.792-1.255-1.257-2.737-1.257-4.331c0-2.757,1.374-5.188,3.471-6.66
	c-0.255-0.83-0.393-1.711-0.393-2.624c0-4.113,2.782-7.568,6.565-8.609c-0.002-0.075-0.011-0.148-0.011-0.223
	c0-4.416,3.58-7.995,7.995-7.995c2.717,0,5.114,1.358,6.559,3.43c1.236-0.566,2.606-0.89,4.054-0.89c4.903,0,8.951,3.62,9.643,8.331
	c5.583,0.522,9.954,5.217,9.954,10.937c0,0.89-0.117,1.751-0.317,2.58c3.105,2.345,3.871,6.642,3.625,9.738
	c-0.378,4.745-4.511,9.069-9.297,9.771c-1.557,0.228-3.869,0.23-5.38-0.552c-1.551,1.827-3.861,2.99-6.445,2.99
	c-2.18,0-4.16-0.832-5.659-2.186c-1.499,1.354-3.48,2.186-5.659,2.186c-2.437,0-4.627-1.037-6.17-2.687
	c-1.195,0.589-2.534,0.929-3.956,0.929c-4.953,0-8.968-4.015-8.968-8.968C22.259,54.484,22.872,52.704,23.906,51.242z"/>
<path fill="#32BA83" d="M51.53,55.685c-4.34,0.231-8.076-2.928-8.634-7.165c-0.046-0.352,0.235-0.663,0.589-0.682l15.208-0.811
	c0.354-0.019,0.667,0.261,0.659,0.616C59.248,51.914,55.87,55.453,51.53,55.685z"/>
<path fill="#96E2BF" d="M46.244,54.186c1.291-1.358,3.079-2.249,5.097-2.356c2.002-0.107,3.86,0.577,5.284,1.772
	c-1.291,1.358-3.079,2.249-5.097,2.356C49.525,56.065,47.668,55.381,46.244,54.186z"/>
<path opacity="0.9" fill="#FFFFFF" enable-background="new    " d="M43.486,47.837l15.208-0.811
	c0.354-0.019,0.667,0.261,0.659,0.616c-0.015,0.618-0.106,1.217-0.251,1.796c0,0-5.508-0.061-7.901,0.066
	c-2.355,0.126-7.864,0.774-7.864,0.774c-0.206-0.56-0.36-1.147-0.44-1.759C42.85,48.168,43.132,47.856,43.486,47.837z"/>
<path fill="none" stroke="#17AA71" stroke-width="1.5" stroke-miterlimit="10" d="M51.53,55.685
	c-4.34,0.231-8.076-2.928-8.634-7.165c-0.046-0.352,0.235-0.663,0.589-0.682c0,0,3.639-0.693,7.577-0.903
	c4.291-0.229,7.631,0.092,7.631,0.092c0.354-0.019,0.667,0.261,0.659,0.616C59.248,51.914,55.87,55.453,51.53,55.685z"/>
<polyline fill="none" stroke="#17AA71" stroke-width="1.5" stroke-linecap="round" stroke-linejoin="round" stroke-miterlimit="10" points="
	38.917,42.971 42.476,41.324 42.476,41.3 38.917,39.653 "/>
<polyline fill="none" stroke="#17AA71" stroke-width="1.5" stroke-linecap="round" stroke-linejoin="round" stroke-miterlimit="10" points="
	62.533,41.856 58.974,40.21 58.974,40.186 62.533,38.539 "/>
<path opacity="0.7" fill="#89DBB0" enable-background="new    " d="M69.362,59.023c-1.551,1.827-3.861,2.99-6.445,2.99
	c-2.18,0-4.16-0.832-5.659-2.186c-1.499,1.354-3.48,2.186-5.659,2.186c-2.437,0-4.627-1.037-6.17-2.687
	c-1.195,0.589-3.324,0.721-4.732,0.517c-6.246-0.909-7.415-5.452-7.739-7.789c-0.21-1.514,0.16-4.472,1.193-5.934
	c-0.792-1.255-1.257-2.737-1.257-4.331c0-2.757,1.374-5.188,3.471-6.66c-0.255-0.83-0.393-1.711-0.393-2.624
	c0-4.113,2.782-7.568,6.565-8.609c-0.002-0.075-0.011-0.148-0.011-0.223c0-0.843,0.132-1.655,0.374-2.418
	c-0.823-0.287-1.703-0.454-2.624-0.454c-4.416,0-7.995,3.58-7.995,7.995c0,0.075,0.009,0.148,0.011,0.223
	c-3.782,1.041-6.565,4.495-6.565,8.609c0,0.913,0.139,1.794,0.393,2.624c-2.097,1.472-3.471,3.904-3.471,6.66
	c0,1.594,0.465,3.076,1.257,4.331c-1.034,1.461-1.646,3.241-1.646,5.168c0,4.953,4.015,8.968,8.968,8.968
	c1.422,0,2.762-0.34,3.956-0.929c1.543,1.65,3.733,2.687,6.17,2.687c2.18,0,4.16-0.832,5.659-2.186
	c1.499,1.354,3.48,2.186,5.659,2.186c2.584,0,4.894-1.163,6.445-2.99c1.511,0.783,3.822,0.781,5.38,0.552
	c3.084-0.452,5.891-2.413,7.602-5.017C71.117,59.616,70.135,59.423,69.362,59.023z"/>
<path opacity="0.4" fill="#89DBB0" enable-background="new    " d="M70.985,45.973c0.001,0.02,0.006,0.043,0.007,0.063
	c0.3,4.751-3.177,9.618-7.815,10.992c-1.509,0.447-3.797,0.778-5.404,0.217c-1.276,2.029-3.397,3.508-5.955,3.875
	c-2.157,0.31-4.236-0.232-5.912-1.36c-1.292,1.554-3.134,2.658-5.291,2.968c-2.412,0.346-4.727-0.369-6.489-1.783
	c-1.099,0.753-2.377,1.28-3.784,1.482c-2.703,0.388-5.293-0.477-7.195-2.15c1.445,3.014,4.516,5.1,8.081,5.1
	c1.422,0,2.762-0.34,3.956-0.929c1.543,1.65,3.733,2.687,6.17,2.687c2.18,0,4.16-0.832,5.659-2.186
	c1.499,1.354,3.48,2.186,5.659,2.186c2.584,0,4.894-1.163,6.445-2.99c1.511,0.783,3.822,0.781,5.38,0.552
	c4.786-0.702,8.919-5.026,9.297-9.771C74.016,52.139,73.377,48.405,70.985,45.973z"/>
<path fill="#69D198" d="M36.835,25.279c-0.002-0.078-0.012-0.154-0.012-0.233c0-1.384,0.342-2.686,0.938-3.836
	c-2.973,0.985-5.17,3.665-5.446,6.897C33.5,26.767,35.06,25.767,36.835,25.279z"/>
<path fill="#69D198" d="M46.299,65.086c-2.545,0-4.832-1.083-6.444-2.806c-1.248,0.615-2.647,0.97-4.132,0.97
	c-5.172,0-9.366-4.193-9.366-9.366c0-2.012,0.64-3.871,1.72-5.397c-0.827-1.311-1.313-2.859-1.313-4.523
	c0-2.879,1.435-5.419,3.625-6.956c-0.266-0.867-0.411-1.786-0.411-2.74c0-1.821,0.527-3.516,1.429-4.95
	c-3.323,1.302-5.681,4.524-5.681,8.309c0,0.913,0.139,1.794,0.393,2.624c-2.097,1.472-3.471,3.904-3.471,6.66
	c0,1.594,0.465,3.076,1.257,4.331c-1.034,1.461-1.646,3.241-1.646,5.168c0,4.953,4.015,8.968,8.968,8.968
	c1.422,0,2.762-0.34,3.956-0.929c1.543,1.65,3.733,2.687,6.17,2.687c2.118,0,4.044-0.79,5.527-2.077
	C46.687,65.071,46.495,65.086,46.299,65.086z"/>
<path fill="#69D198" d="M58.119,65.086c-2.276,0-4.345-0.869-5.91-2.283c-1.373,1.24-3.132,2.06-5.078,2.244
	c1.485,1.294,3.417,2.089,5.541,2.089c2.104,0,4.018-0.779,5.497-2.052C58.152,65.084,58.136,65.086,58.119,65.086z"/>
<path fill="#69D198" d="M64.851,61.964c-1.064,1.253-2.473,2.197-4.077,2.705c1.266,0.228,2.666,0.184,3.723,0.029
	c1.729-0.253,3.361-0.993,4.772-2.041C67.797,62.736,66.075,62.598,64.851,61.964z"/>
<path fill="none" stroke="#17AA71" stroke-width="1.5" stroke-linecap="round" stroke-linejoin="round" stroke-miterlimit="10" d="
	M23.906,51.242c-0.792-1.255-1.257-2.737-1.257-4.331c0-2.757,1.374-5.188,3.471-6.66c-0.255-0.83-0.393-1.711-0.393-2.624
	c0-4.113,2.782-7.568,6.565-8.609c-0.002-0.075-0.011-0.148-0.011-0.223c0-4.416,3.58-7.995,7.995-7.995
	c2.717,0,5.114,1.358,6.559,3.43c1.236-0.566,2.606-0.89,4.054-0.89c4.903,0,8.951,3.62,9.643,8.331
	c5.583,0.522,9.954,5.217,9.954,10.937c0,0.89-0.117,1.751-0.317,2.58c3.105,2.345,3.871,6.642,3.625,9.738
	c-0.378,4.745-4.511,9.069-9.297,9.771c-1.557,0.228-3.869,0.23-5.38-0.552c-1.551,1.827-3.861,2.99-6.445,2.99
	c-2.18,0-4.16-0.832-5.659-2.186c-1.499,1.354-3.48,2.186-5.659,2.186c-2.437,0-4.627-1.037-6.17-2.687
	c-1.195,0.589-2.534,0.929-3.956,0.929c-4.953,0-8.968-4.015-8.968-8.968C22.259,54.484,22.872,52.704,23.906,51.242z"/>
<ellipse fill="#69D198" cx="37.761" cy="46.852" rx="2" ry="1.324"/>
<ellipse fill="#69D198" cx="63.026" cy="45.095" rx="2" ry="1.324"/>
<line fill="none" stroke="#17AA71" stroke-width="1.5" stroke-linecap="round" stroke-linejoin="round" stroke-miterlimit="10" x1="68.799" y1="24.478" x2="66.747" y2="26.431"/>
<line fill="none" stroke="#17AA71" stroke-width="1.5" stroke-linecap="round" stroke-linejoin="round" stroke-miterlimit="10" x1="64.307" y1="22.411" x2="63.876" y2="24.846"/>
<line fill="none" stroke="#17AA71" stroke-width="1.5" stroke-linecap="round" stroke-linejoin="round" stroke-miterlimit="10" x1="70.684" y1="29.086" x2="68.006" y2="29.411"/>
</svg>
