<?xml version="1.0" encoding="iso-8859-1"?>
<!-- Generator: Adobe Illustrator 20.0.0, SVG Export Plug-In . SVG Version: 6.00 Build 0)  -->
<svg version="1.1" id="Layer_1" xmlns="http://www.w3.org/2000/svg" xmlns:xlink="http://www.w3.org/1999/xlink" x="0px" y="0px"
	 viewBox="0 0 96 96" enable-background="new 0 0 96 96" xml:space="preserve">
<path fill="#D0D1D3" d="M48,12c-19.85,0-36,16.15-36,36s16.15,36,36,36s36-16.15,36-36S67.85,12,48,12L48,12z"/>
<path fill="#FFFFFF" d="M48,13c19.33,0,35,15.67,35,35S67.33,83,48,83S13,67.33,13,48S28.67,13,48,13"/>
<circle fill="#EDEDF7" cx="48" cy="48" r="34"/>
<path opacity="0.4" fill="#D1D1E8" enable-background="new    " d="M55.106,74.015c-18.778,0-34-15.222-34-34
	c0-6.755,1.978-13.045,5.375-18.337C18.864,27.914,14,37.388,14,48c0,18.778,15.222,34,34,34c12.022,0,22.579-6.245,28.625-15.663
	C70.763,71.134,63.272,74.015,55.106,74.015z"/>
<line fill="none" stroke="#939ACE" stroke-width="2" stroke-miterlimit="10" x1="58.594" y1="24.975" x2="55.763" y2="30.034"/>
<path fill="#ADADDB" stroke="#939ACE" stroke-width="1.6" stroke-miterlimit="10" d="M57.292,34.235h-3.059
	c-1.421,0-2.583-1.163-2.583-2.583l0,0c0-1.421,1.163-2.583,2.583-2.583h3.059c1.421,0,2.583,1.163,2.583,2.583l0,0
	C59.876,33.073,58.713,34.235,57.292,34.235z"/>
<path fill="#DADAEA" d="M61.335,74.063h-26.4c-4.84,0-8.8-3.96-8.8-8.8V41.014c0-4.84,3.96-8.8,8.8-8.8h26.4
	c4.84,0,8.8,3.96,8.8,8.8v24.248C70.135,70.103,66.175,74.063,61.335,74.063z"/>
<path opacity="0.3" fill="#ADADDB" enable-background="new    " d="M61.135,32H44v42h17.135C66.105,74,70,70.382,70,65.654V40.926
	C70,36.198,66.105,32,61.135,32z"/>
<path fill="#F4F4F9" stroke="#939ACE" stroke-width="1.6" stroke-miterlimit="10" d="M53.36,67.667c0,0-5.028,0.666-9,0.666
	c-4.196,0-9-0.666-9-0.666c-1.016-0.282-3-1.35-3-3l0,0c0-1.65,1.35-3,3-3c0,0,5.357,0.666,9,0.666c3.542,0.001,9-0.666,9-0.666
	c1.65,0,3,1.35,3,3l0,0C56.36,66.317,54.396,67.48,53.36,67.667z"/>
<line fill="none" stroke="#939ACE" stroke-width="1.6" stroke-miterlimit="10" x1="44.36" y1="62.333" x2="44.36" y2="67.7"/>
<line fill="none" stroke="#939ACE" stroke-width="1.6" stroke-miterlimit="10" x1="38.804" y1="62.333" x2="38.804" y2="67.7"/>
<line fill="none" stroke="#939ACE" stroke-width="1.6" stroke-miterlimit="10" x1="49.915" y1="62.333" x2="49.915" y2="67.7"/>
<path opacity="0.5" fill="#ADADDB" enable-background="new    " d="M61.135,32h-7C59.105,32,63,36.198,63,40.926v24.729
	C63,70.382,59.105,74,54.135,74h7C66.105,74,70,70.382,70,65.654V40.926C70,36.198,66.105,32,61.135,32z"/>
<path fill="none" stroke="#939ACE" stroke-width="1.6" stroke-miterlimit="10" d="M61.335,74.063h-26.4c-4.84,0-8.8-3.96-8.8-8.8
	V41.014c0-4.84,3.96-8.8,8.8-8.8h26.4c4.84,0,8.8,3.96,8.8,8.8v24.248C70.135,70.103,66.175,74.063,61.335,74.063z"/>
<path fill="#C3C3E2" d="M63.938,58.402h-32c-5.5,0-10-4.5-10-10l0,0c0-5.5,4.5-10,10-10h32c5.5,0,10,4.5,10,10l0,0
	C73.938,53.902,69.438,58.402,63.938,58.402z"/>
<path fill="#DADAEA" d="M60.105,38H31.938c-5.5,0-10,4.5-10,10s4.5,10,10,10h29.25C65.623,57,69,52.65,69,47.884v0.239
	C69,42.976,65.074,38,60.105,38z"/>
<path fill="#E9E9F2" d="M65,48.239C65,51.973,61.973,55,58.239,55H31.761C28.027,55,25,51.973,25,48.239v-0.478
	C25,44.027,28.027,41,31.761,41h26.478C61.973,41,65,44.027,65,47.761V48.239z"/>
<path fill="#ADADDB" d="M63.938,38h-2.5c5.5,0,10,4.5,10,10s-4.5,10-10,10h2.5c5.5,0,10-4.5,10-10S69.438,38,63.938,38z"/>
<path fill="none" stroke="#939ACE" stroke-width="1.6" stroke-miterlimit="10" d="M63.938,58.402h-32c-5.5,0-10-4.5-10-10l0,0
	c0-5.5,4.5-10,10-10h32c5.5,0,10,4.5,10,10l0,0C73.938,53.902,69.438,58.402,63.938,58.402z"/>
<path fill="#EFEFF4" d="M58.26,54.883h-26c-3.85,0-7-3.15-7-7l0,0c0-3.85,3.15-7,7-7h26c3.85,0,7,3.15,7,7l0,0
	C65.26,51.733,62.11,54.883,58.26,54.883z"/>
<path fill="#DADAEA" d="M58.26,41H44v14h14.26c3.85,0,6.74-3.217,6.74-7.067v0.025C65,44.108,62.11,41,58.26,41z"/>
<path fill="none" stroke="#939ACE" stroke-width="1.6" stroke-miterlimit="10" d="M58.26,54.883h-26c-3.85,0-7-3.15-7-7l0,0
	c0-3.85,3.15-7,7-7h26c3.85,0,7,3.15,7,7l0,0C65.26,51.733,62.11,54.883,58.26,54.883z"/>
<circle fill="#FFFFFF" stroke="#939ACE" stroke-width="1.6" stroke-linecap="round" stroke-linejoin="round" stroke-miterlimit="10" cx="33.917" cy="48.983" r="1.358"/>
<circle fill="#FFFFFF" stroke="#939ACE" stroke-width="1.6" stroke-linecap="round" stroke-linejoin="round" stroke-miterlimit="10" cx="53.917" cy="48.983" r="1.358"/>
<circle fill="#F5F5F7" cx="59.483" cy="22.492" r="3.483"/>
<path opacity="0.5" fill="#ADADDB" enable-background="new    " d="M60.924,19.328c0.2,0.439,0.318,0.923,0.318,1.437
	c0,1.924-1.56,3.483-3.483,3.483c-0.515,0-1-0.119-1.44-0.32c0.548,1.204,1.755,2.046,3.165,2.046c1.924,0,3.483-1.559,3.483-3.483
	C62.966,21.083,62.126,19.877,60.924,19.328z"/>
<circle fill="none" stroke="#939ACE" stroke-width="1.6" stroke-miterlimit="10" cx="59.483" cy="22.492" r="3.483"/>
<line fill="none" stroke="#939ACE" stroke-width="1.6" stroke-linecap="round" stroke-linejoin="round" stroke-miterlimit="10" x1="48.569" y1="19.942" x2="50.727" y2="20.92"/>
<line fill="none" stroke="#939ACE" stroke-width="1.6" stroke-linecap="round" stroke-linejoin="round" stroke-miterlimit="10" x1="51.549" y1="17.073" x2="52.559" y2="18.878"/>
<line fill="none" stroke="#939ACE" stroke-width="1.6" stroke-linecap="round" stroke-linejoin="round" stroke-miterlimit="10" x1="48.347" y1="24.101" x2="50.552" y2="23.62"/>
</svg>
