<?xml version="1.0" encoding="iso-8859-1"?>
<!-- Generator: Adobe Illustrator 20.0.0, SVG Export Plug-In . SVG Version: 6.00 Build 0)  -->
<svg version="1.1" id="Layer_1" xmlns="http://www.w3.org/2000/svg" xmlns:xlink="http://www.w3.org/1999/xlink" x="0px" y="0px"
	 viewBox="0 0 96 96" enable-background="new 0 0 96 96" xml:space="preserve">
<path fill="#D0D1D3" d="M48,12c-19.85,0-36,16.15-36,36s16.15,36,36,36s36-16.15,36-36S67.85,12,48,12L48,12z"/>
<path fill="#FFFFFF" d="M48,13c19.33,0,35,15.67,35,35S67.33,83,48,83S13,67.33,13,48S28.67,13,48,13"/>
<circle fill="#F2EDE9" cx="48" cy="48" r="34"/>
<path opacity="0.5" fill="#E0D9D3" enable-background="new    " d="M55.106,74.015c-18.778,0-34-15.222-34-34
	c0-6.755,1.978-13.045,5.375-18.337C18.864,27.914,14,37.388,14,48c0,18.778,15.222,34,34,34c12.022,0,22.579-6.245,28.625-15.663
	C70.763,71.134,63.272,74.015,55.106,74.015z"/>
<path fill="#D6CEC5" d="M48,25.01c14.247,0,26.213,9.765,29.573,22.966C74.213,61.178,62.247,70.942,48,70.942
	s-26.213-9.765-29.573-22.966C21.787,34.774,33.753,25.01,48,25.01z"/>
<ellipse opacity="0.8" fill="#FFFFFF" enable-background="new    " cx="49.855" cy="41.094" rx="6" ry="6.5"/>
<ellipse opacity="0.8" fill="#FFFFFF" enable-background="new    " cx="38.978" cy="41.817" rx="5" ry="5.5"/>
<path fill="#FFFFFF" d="M65.216,47.996c0-6.348-0.427-12.514-1.211-18.428c6.64,4.1,11.592,10.67,13.567,18.432
	c-1.976,7.762-6.928,14.333-13.568,18.432C64.789,60.516,65.216,54.348,65.216,47.996z"/>
<path fill="#C1B4A8" d="M71.351,47.996c0-4.341-0.202-8.596-0.576-12.747c3.203,3.591,5.573,7.941,6.797,12.75
	c-1.224,4.81-3.595,9.16-6.798,12.751C71.149,56.598,71.351,52.341,71.351,47.996z"/>
<path fill="#FFFFFF" d="M29.537,48.193c0-5.708,0.384-11.251,1.089-16.569c-5.97,3.686-10.422,9.593-12.198,16.572
	c1.776,6.979,6.229,12.887,12.199,16.572C29.921,59.449,29.537,53.903,29.537,48.193z"/>
<path fill="#C1B4A8" d="M24.021,48.193c0-3.903,0.182-7.728,0.518-11.46c-2.879,3.229-5.011,7.139-6.111,11.464
	c1.101,4.324,3.232,8.235,6.112,11.464C24.203,55.926,24.021,52.098,24.021,48.193z"/>
<circle fill="#A5958B" cx="47.461" cy="38.539" r="1.5"/>
<circle fill="#A5958B" cx="37.117" cy="39.609" r="1.5"/>
<path fill="none" stroke="#A5958B" stroke-width="1.6" stroke-linecap="round" stroke-linejoin="round" stroke-miterlimit="10" d="
	M53.699,30.54c0,0,0.262,1.261,1.155,1.842c0.819,0.532,1.845,0.532,1.845,0.532"/>
<path fill="none" stroke="#A5958B" stroke-width="1.6" stroke-linecap="round" stroke-linejoin="round" stroke-miterlimit="10" d="
	M37.699,31.54c0,0-0.262,1.261-1.155,1.842c-0.819,0.532-1.845,0.532-1.845,0.532"/>
<path fill="none" stroke="#A5958B" stroke-width="1.6" stroke-linecap="round" stroke-linejoin="round" stroke-miterlimit="10" d="
	M49.239,51.952c0.406,1.404,0.551,3.92-1.239,4.439c-1.806,0.524-3.32-1.332-3.748-2.989"/>
<path opacity="0.4" fill="#D6CEC5" enable-background="new    " d="M46.875,44.726c3.314,0,6-2.91,6-6.5
	c0-1.143-0.274-2.215-0.752-3.149c2.189,0.969,3.733,3.296,3.733,6.016c0,3.59-2.686,6.5-6,6.5c-2.259,0-4.224-1.354-5.248-3.351
	C45.307,44.553,46.072,44.726,46.875,44.726z"/>
<ellipse fill="none" stroke="#A5958B" stroke-width="1.6" stroke-miterlimit="10" cx="49.855" cy="41.094" rx="5.5" ry="6"/>
<path opacity="0.4" fill="#D6CEC5" enable-background="new    " d="M36.199,45.109c2.761,0,5-2.462,5-5.5
	c0-1.141-0.316-2.201-0.857-3.079c2.097,0.654,3.636,2.771,3.636,5.287c0,3.038-2.239,5.5-5,5.5c-1.724,0-3.244-0.96-4.143-2.421
	C35.269,45.031,35.725,45.109,36.199,45.109z"/>
<ellipse fill="none" stroke="#A5958B" stroke-width="1.6" stroke-miterlimit="10" cx="38.978" cy="41.817" rx="4.5" ry="5"/>
<path fill="#FFFFFF" d="M65.216,47.972c0-6.348-0.427-12.514-1.211-18.428c6.64,4.1,11.592,10.67,13.567,18.432
	c-1.976,7.762-6.928,14.333-13.568,18.432C64.789,60.491,65.216,54.323,65.216,47.972z"/>
<path fill="#C1B4A8" d="M71.351,47.972c0-4.341-0.202-8.596-0.576-12.747c3.203,3.591,5.573,7.941,6.797,12.75
	c-1.224,4.81-3.595,9.16-6.798,12.751C71.149,56.573,71.351,52.316,71.351,47.972z"/>
<path fill="none" stroke="#A5958B" stroke-width="1.6" stroke-linecap="round" stroke-linejoin="round" stroke-miterlimit="10" d="
	M64.004,65.976c0.785-5.778,1.212-11.802,1.212-18.004c0-6.199-0.427-12.22-1.211-17.996"/>
<path fill="none" stroke="#A5958B" stroke-width="1.6" stroke-linecap="round" stroke-linejoin="round" stroke-miterlimit="10" d="
	M70.796,35.547c0.359,4.049,0.555,8.195,0.555,12.425c0,4.233-0.197,8.382-0.556,12.433"/>
<path fill="none" stroke="#A5958B" stroke-width="1.6" stroke-linecap="round" stroke-linejoin="round" stroke-miterlimit="10" d="
	M30.552,64.7c-0.702-5.361-1.084-10.949-1.084-16.704c0-5.752,0.382-11.338,1.083-16.696"/>
<path fill="none" stroke="#A5958B" stroke-width="1.6" stroke-linecap="round" stroke-linejoin="round" stroke-miterlimit="10" d="
	M24.474,36.469c-0.321,3.756-0.497,7.603-0.497,11.527c0,3.927,0.176,7.776,0.497,11.535"/>
<path opacity="0.2" fill="#B2A59B" enable-background="new    " d="M69.074,34.594c3.815,3.757,6.627,8.529,7.989,13.882
	c-3.287,12.914-14.992,22.466-28.93,22.466c-8.255,0-15.726-3.352-21.13-8.768C48.301,61.965,65.877,50.087,69.074,34.594z"/>
<path opacity="0.4" fill="#B2A59B" enable-background="new    " d="M41.892,65.411c15.822,0,29.17-9.961,33.392-23.594
	c0.985,1.951,1.771,4.02,2.322,6.183c-3.36,13.202-15.325,22.966-29.573,22.966c-8.442,0-16.082-3.429-21.606-8.969
	C31.086,64.182,36.336,65.411,41.892,65.411z"/>
<path fill="none" stroke="#A5958B" stroke-width="1.6" stroke-miterlimit="10" d="M48,25.01c14.247,0,26.213,9.765,29.573,22.966
	C74.213,61.178,62.247,70.942,48,70.942s-26.213-9.765-29.573-22.966C21.787,34.774,33.753,25.01,48,25.01z"/>
</svg>
