<?xml version="1.0" encoding="iso-8859-1"?>
<!-- Generator: Adobe Illustrator 20.0.0, SVG Export Plug-In . SVG Version: 6.00 Build 0)  -->
<svg version="1.1" id="Layer_1" xmlns="http://www.w3.org/2000/svg" xmlns:xlink="http://www.w3.org/1999/xlink" x="0px" y="0px"
	 viewBox="0 0 96 96" enable-background="new 0 0 96 96" xml:space="preserve">
<path fill="#D0D1D3" d="M48,12c-19.85,0-36,16.15-36,36s16.15,36,36,36s36-16.15,36-36S67.85,12,48,12L48,12z"/>
<path fill="#FFFFFF" d="M48,13c19.33,0,35,15.67,35,35S67.33,83,48,83S13,67.33,13,48S28.67,13,48,13"/>
<circle fill="#F7F0F4" cx="48" cy="48" r="34"/>
<path opacity="0.5" fill="#E5D1DA" enable-background="new    " d="M55.106,74.015c-18.778,0-34-15.222-34-34
	c0-6.755,1.978-13.045,5.375-18.337C18.864,27.914,14,37.388,14,48c0,18.778,15.222,34,34,34c12.022,0,22.579-6.245,28.625-15.663
	C70.763,71.134,63.272,74.015,55.106,74.015z"/>
<g id="Layer_1_1_">
	<path fill="#E8D4DF" d="M67.054,50.511c1.454,3.632,2.43,8.123,2.446,12.036c0.004,0.981-0.183,2.948-0.445,3.894
		c-0.957,3.447-5.102,6.326-9.184,7.224s-6.219,1.334-11.553,1.268c-5.919,0.006-8.106-0.37-12.188-1.268
		c-4.082-0.898-8.227-3.777-9.184-7.224c-0.263-0.946-0.449-2.912-0.445-3.894c0.016-3.912,0.992-8.404,2.446-12.036"/>
	<path opacity="0.5" fill="#CEAEC0" enable-background="new    " d="M44.91,73.072c-4.082-0.898-8.227-3.777-9.184-7.224
		c-0.263-0.946-0.449-2.714-0.445-3.695c0.015-3.705,0.897-8.244,2.225-11.244h-8.559c-1.454,3-2.43,7.925-2.446,11.837
		c-0.004,0.981,0.183,2.849,0.445,3.794c0.957,3.447,5.102,6.276,9.184,7.175s6.269,1.25,12.188,1.244
		c3.755,0.046,5.927-0.169,8.307-0.607C51.066,74.337,48.878,73.946,44.91,73.072z"/>
	<path opacity="0.5" fill="#CEAEC0" enable-background="new    " d="M67.054,50.908h-0.796c-0.928,0-2.041,1.056-3.167,1.056
		l-8.076-0.105l-8.852-0.039l-13.254,0.169c-1.126,0-2.238-1.081-3.165-1.081h-0.798c-0.259,0-0.497,1.131-0.723,1.825
		c1.037,1.433,2.685,2.388,4.346,2.388l13.254-0.044l8.852-0.035l8.076-0.007c1.927,0,3.831-1.23,4.79-3.013
		C67.385,51.577,67.223,50.908,67.054,50.908z"/>
	<path opacity="0.5" fill="#CEAEC0" enable-background="new    " d="M51.9,25.725c0.048-0.178,0.073-0.361,0.07-0.549
		c-0.022-1.535-1.817-2.756-4.009-2.727c-2.193,0.029-3.953,1.296-3.931,2.831c0.003,0.188,0.033,0.37,0.086,0.547l-3.718,0.048
		c-0.131-0.391-0.209-0.798-0.215-1.217c-0.043-3.049,3.423-5.566,7.74-5.622s7.852,2.369,7.895,5.418
		c0.006,0.42-0.061,0.828-0.181,1.222"/>
	<path fill="#F4E4EC" d="M46.163,51.771l-13.254-0.005c-2.956,0-5.872-3.34-5.375-6.21c0.65-3.75,5.123-14.358,5.123-14.358
		c1.135-3.062,2.419-4.834,5.375-4.834h19.936c2.956,0,4.357,1.91,5.375,4.834c0,0,4.473,10.608,5.123,14.358
		c0.497,2.87-2.419,6.21-5.375,6.21l-8.076-0.005"/>
	<path fill="none" stroke="#C48DA4" stroke-width="1.5" stroke-linecap="round" stroke-linejoin="round" stroke-miterlimit="10" d="
		M67.054,50.511c1.454,3.632,2.43,8.123,2.446,12.036c0.004,0.981-0.183,2.948-0.445,3.894c-0.957,3.447-5.102,6.326-9.184,7.224
		s-6.219,1.334-11.553,1.268c-5.919,0.006-8.106-0.37-12.188-1.268c-4.082-0.898-8.227-3.777-9.184-7.224
		c-0.263-0.946-0.449-2.912-0.445-3.894c0.016-3.912,0.992-8.404,2.446-12.036"/>
	<path fill="none" stroke="#C48DA4" stroke-width="1.5" stroke-linecap="round" stroke-linejoin="round" stroke-miterlimit="10" d="
		M52.387,54.282h-4.063c-0.881,0-1.594-0.714-1.594-1.594v-2.455c0-0.881,0.714-1.594,1.594-1.594h4.063
		c0.881,0,1.594,0.714,1.594,1.594v2.455C53.982,53.568,53.268,54.282,52.387,54.282z"/>
	<path fill="none" stroke="#C48DA4" stroke-width="1.5" stroke-linecap="round" stroke-linejoin="round" stroke-miterlimit="10" d="
		M33.303,52.224c-0.606,1.588-1.203,3.188-1.557,4.85s-0.461,3.401-0.083,5.058"/>
	<path fill="none" stroke="#C48DA4" stroke-width="1.5" stroke-linecap="round" stroke-linejoin="round" stroke-miterlimit="10" d="
		M62.894,58.772c0.421,1.778,0.384,3.663-0.107,5.423"/>
	<path fill="#F9EFF4" d="M48.594,54.367l-1.011,4.987c0.016,1.236,1.004,2.795,2.187,2.778l1.562-0.022
		c1.183-0.017,2.13-1.603,2.114-2.839l-1.14-4.956"/>
	<path fill="#D8B2C5" d="M50.195,42.756c3.068,0,5.584-2.368,5.818-5.377c0.019-0.25-0.191-0.459-0.441-0.459H44.819
		c-0.25,0-0.461,0.209-0.441,0.459C44.611,40.387,47.127,42.756,50.195,42.756z"/>
	<path fill="#C48DA4" d="M53.063,41.498c-0.751-0.71-1.762-1.148-2.877-1.148c-1.106,0-2.109,0.431-2.858,1.131
		c0.751,0.71,1.762,1.148,2.877,1.148C51.31,42.629,52.314,42.198,53.063,41.498z"/>
	<circle fill="#C48DA4" cx="44.324" cy="32.353" r="1.016"/>
	<circle fill="#C48DA4" cx="55.764" cy="32.353" r="1.016"/>
	<path opacity="0.9" fill="#FFFFFF" enable-background="new    " d="M55.442,37.122H45.121c-0.24,0-0.442,0.201-0.423,0.44
		c0.032,0.417,0.116,0.82,0.235,1.206c0,0,3.725-0.24,5.349-0.24c1.598,0,5.349,0.24,5.349,0.24
		c0.119-0.387,0.202-0.789,0.235-1.206C55.884,37.322,55.682,37.122,55.442,37.122z"/>
	<path fill="none" stroke="#C48DA4" stroke-width="1.2" stroke-miterlimit="10" d="M50.195,42.756c3.068,0,5.584-2.368,5.818-5.377
		c0.019-0.25-0.191-0.459-0.441-0.459c0,0-2.591-0.352-5.376-0.352c-3.034,0-5.376,0.352-5.376,0.352
		c-0.25,0-0.461,0.209-0.441,0.459C44.611,40.387,47.127,42.756,50.195,42.756z"/>
	<path fill="#F9EFF4" d="M52.387,54.282h-4.063c-0.881,0-1.594-0.714-1.594-1.594v-2.455c0-0.881,0.714-1.594,1.594-1.594h4.063
		c0.881,0,1.594,0.714,1.594,1.594v2.455C53.982,53.568,53.268,54.282,52.387,54.282z"/>
	<path fill="#EDDAE5" d="M38.891,51.766c-2.956,0-5.872-3.341-5.375-6.21c0.65-3.75,5.123-14.585,5.123-14.585
		c1.135-3.062,2.419-5.062,5.375-5.062h-5.982c-2.956,0-4.24,2-5.375,5.062c0,0-4.473,10.721-5.123,14.472
		c-0.497,2.87,2.419,6.267,5.375,6.267l13.254,0.034l1.497,0.012L38.891,51.766z"/>
	<path fill="#EDDAE5" d="M60.996,51.76l-2.118,0.003l4.212,0.003c0.019,0,0.037-0.004,0.056-0.004L60.996,51.76z"/>
	<path opacity="0.5" fill="#CEAEC0" enable-background="new    " d="M51.97,24.858c0.003,0.188-0.022,0.53-0.07,0.708l3.737,0.03
		c0.12-0.395,0.187-1.081,0.181-1.5c-0.004-0.311-0.054-1.187-0.128-1.187h-4.525C51.657,22.908,51.962,24.241,51.97,24.858z"/>
	<path opacity="0.5" fill="#CEAEC0" enable-background="new    " d="M44.115,25.826c-0.053-0.177-0.083-0.677-0.086-0.865
		c-0.009-0.655,0.32-2.053,0.855-2.053h-4.559c-0.099,0-0.148,1.05-0.143,1.431c0.006,0.42,0.084,0.985,0.215,1.376L44.115,25.826z"
		/>
	<path fill="none" stroke="#C48DA4" stroke-width="1.5" stroke-linecap="round" stroke-linejoin="round" stroke-miterlimit="10" d="
		M55.637,25.675c0.12-0.395,0.187-0.803,0.181-1.222c-0.043-3.049-3.577-5.475-7.895-5.418c-4.317,0.056-7.783,2.574-7.74,5.622
		c0.006,0.42,0.084,0.826,0.215,1.217"/>
	<path fill="none" stroke="#C48DA4" stroke-width="1.5" stroke-linecap="round" stroke-linejoin="round" stroke-miterlimit="10" d="
		M44.115,25.826c-0.053-0.177-0.083-0.359-0.086-0.547c-0.022-1.535,1.739-2.802,3.931-2.831c2.193-0.029,3.988,1.192,4.009,2.727
		c0.003,0.188-0.022,0.371-0.07,0.549"/>
	<path fill="none" stroke="#C48DA4" stroke-width="1.5" stroke-linecap="round" stroke-linejoin="round" stroke-miterlimit="10" d="
		M46.163,51.771l-13.254-0.005c-2.956,0-5.872-3.34-5.375-6.21c0.65-3.75,5.123-14.358,5.123-14.358
		c1.135-3.062,2.419-4.834,5.375-4.834h19.936c2.956,0,4.357,1.91,5.375,4.834c0,0,4.473,10.608,5.123,14.358
		c0.497,2.87-2.419,6.21-5.375,6.21l-8.076-0.005"/>
	<path fill="#EDDAE5" d="M49.908,48.908h-1.62c-0.861,0-1.38,0.427-1.38,1.288v2.528c0,0.861,0.52,1.184,1.38,1.184h1.62V48.908z"/>
	<path fill="#EDDAE5" d="M48.593,54.367l-1.011,4.987c0.016,1.236,1.004,2.795,2.187,2.778l1.562-0.022
		c0.027,0,0.052-0.012,0.079-0.014c-1.07-0.182-1.928-1.594-1.943-2.742l1.011-4.987"/>
	<path fill="none" stroke="#C48DA4" stroke-width="1.5" stroke-linecap="round" stroke-linejoin="round" stroke-miterlimit="10" d="
		M48.594,54.367l-1.011,4.987c0.016,1.236,1.004,2.795,2.187,2.778l1.562-0.022c1.183-0.017,2.13-1.603,2.114-2.839l-1.14-4.956"/>
	<path fill="none" stroke="#C48DA4" stroke-width="1.5" stroke-linecap="round" stroke-linejoin="round" stroke-miterlimit="10" d="
		M52.387,54.282h-4.063c-0.881,0-1.594-0.714-1.594-1.594v-2.455c0-0.881,0.714-1.594,1.594-1.594h4.063
		c0.881,0,1.594,0.714,1.594,1.594v2.455C53.982,53.568,53.268,54.282,52.387,54.282z"/>
	
		<line fill="none" stroke="#C48DA4" stroke-width="0.8" stroke-linecap="round" stroke-linejoin="round" stroke-miterlimit="10" x1="39.557" y1="35.575" x2="38.857" y2="36.748"/>
	
		<line fill="none" stroke="#C48DA4" stroke-width="0.8" stroke-linecap="round" stroke-linejoin="round" stroke-miterlimit="10" x1="40.966" y1="35.834" x2="40.575" y2="36.489"/>
	
		<line fill="none" stroke="#C48DA4" stroke-width="0.8" stroke-linecap="round" stroke-linejoin="round" stroke-miterlimit="10" x1="60.332" y1="35.239" x2="59.515" y2="36.608"/>
	
		<line fill="none" stroke="#C48DA4" stroke-width="0.8" stroke-linecap="round" stroke-linejoin="round" stroke-miterlimit="10" x1="61.855" y1="35.596" x2="61.464" y2="36.251"/>
	
		<line fill="none" stroke="#C48DA4" stroke-width="0.8" stroke-linecap="round" stroke-linejoin="round" stroke-miterlimit="10" x1="58.383" y1="35.596" x2="57.992" y2="36.251"/>
	
		<line fill="none" stroke="#C48DA4" stroke-width="0.8" stroke-linecap="round" stroke-linejoin="round" stroke-miterlimit="10" x1="38.034" y1="35.834" x2="37.644" y2="36.489"/>
</g>
</svg>
