<?xml version="1.0" encoding="iso-8859-1"?>
<!-- Generator: Adobe Illustrator 20.0.0, SVG Export Plug-In . SVG Version: 6.00 Build 0)  -->
<svg version="1.1" id="Layer_1" xmlns="http://www.w3.org/2000/svg" xmlns:xlink="http://www.w3.org/1999/xlink" x="0px" y="0px"
	 viewBox="0 0 96 96" enable-background="new 0 0 96 96" xml:space="preserve">
<path fill="#D0D1D3" d="M48,12c-19.85,0-36,16.15-36,36s16.15,36,36,36s36-16.15,36-36S67.85,12,48,12L48,12z"/>
<path fill="#FFFFFF" d="M48,13c19.33,0,35,15.67,35,35S67.33,83,48,83S13,67.33,13,48S28.67,13,48,13"/>
<circle fill="#EDF6F7" cx="48" cy="48" r="34"/>
<path opacity="0.6" fill="#D3EFF2" enable-background="new    " d="M55.106,74.015c-18.778,0-34-15.222-34-34
	c0-6.755,1.978-13.045,5.375-18.337C18.864,27.914,14,37.388,14,48c0,18.778,15.222,34,34,34c12.022,0,22.579-6.245,28.625-15.663
	C70.763,71.134,63.272,74.015,55.106,74.015z"/>
<path fill="#D9F5FC" d="M55.617,68.619H28.231c-1.289,0-2.343-1.022-2.343-2.27V27.683c0-1.249,1.054-2.27,2.343-2.27h32.037
	c1.289,0,2.343,1.022,2.343,2.27v28.049"/>
<path opacity="0.2" fill="#81D7F2" enable-background="new    " d="M32.902,29.19c0-1.348,0.084-2.19,0.232-4.19h-4.902
	C26.942,25,26,26.434,26,27.683v38.666C26,67.597,26.942,69,28.231,69h27.386l2.957-5.743C43.772,59.155,32.902,45.299,32.902,29.19
	z"/>
<path fill="#81D7F2" d="M30,26h-0.738C27.974,26,26,26.434,26,27.683v38.666C26,67.597,27.974,69,29.262,69H30V26z"/>
<path fill="#62C6ED" d="M46.619,50.094c4.265,0,7.761-3.292,8.086-7.473c0.027-0.347-0.265-0.638-0.613-0.638H39.147
	c-0.348,0-0.64,0.291-0.613,0.638C38.859,46.802,42.355,50.094,46.619,50.094z"/>
<path fill="#ABE3F4" d="M50.605,48.346c-1.044-0.987-2.449-1.596-3.999-1.596c-1.537,0-2.931,0.6-3.973,1.572
	c1.044,0.987,2.449,1.596,3.999,1.596C48.17,49.918,49.564,49.318,50.605,48.346z"/>
<path opacity="0.9" fill="#FFFFFF" enable-background="new    " d="M50.295,42.778c0.012-0.152-0.099-0.284-0.251-0.296
	c-1.122-0.084-2.43-0.17-3.077-0.169c-0.696,0.002-2.217,0.119-3.329,0.212c-0.147,0.012-0.252,0.137-0.247,0.284l0.055,1.487
	c0.006,0.156,0.139,0.276,0.295,0.265c1.244-0.086,2.485-0.186,3.334-0.186c0.723,0,1.753,0.03,2.825,0.07
	c0.148,0.006,0.275-0.106,0.286-0.254L50.295,42.778z"/>
<path fill="none" stroke="#0FB5E4" stroke-width="1.2" stroke-miterlimit="10" d="M46.619,50.094c4.265,0,7.761-3.292,8.086-7.473
	c0.027-0.347-0.265-0.638-0.613-0.638c0,0-3.602-0.489-7.473-0.489c-4.217,0-7.473,0.489-7.473,0.489
	c-0.348,0-0.64,0.291-0.613,0.638C38.859,46.802,42.355,50.094,46.619,50.094z"/>
<path opacity="0.4" fill="#81D7F2" enable-background="new    " d="M28.126,37.429c0-4.378,0.809-8.565,2.275-12.429h-2.17
	C26.942,25,26,26.434,26,27.683v38.666C26,67.597,26.942,69,28.231,69h19.702C36.211,63.329,28.126,51.324,28.126,37.429z"/>
<circle fill="#0FB5E4" cx="37.619" cy="34.363" r="1.358"/>
<circle fill="#0FB5E4" cx="55.619" cy="34.363" r="1.358"/>
<line fill="none" stroke="#0FB5E4" stroke-width="0.8" stroke-linecap="round" stroke-linejoin="round" stroke-miterlimit="10" x1="35.358" y1="38.822" x2="34.642" y2="40.022"/>
<line fill="none" stroke="#0FB5E4" stroke-width="0.8" stroke-linecap="round" stroke-linejoin="round" stroke-miterlimit="10" x1="36.8" y1="39.087" x2="36.4" y2="39.757"/>
<line fill="none" stroke="#0FB5E4" stroke-width="0.8" stroke-linecap="round" stroke-linejoin="round" stroke-miterlimit="10" x1="56.616" y1="38.478" x2="55.78" y2="39.878"/>
<line fill="none" stroke="#0FB5E4" stroke-width="0.8" stroke-linecap="round" stroke-linejoin="round" stroke-miterlimit="10" x1="58.175" y1="38.843" x2="57.775" y2="39.513"/>
<line fill="none" stroke="#0FB5E4" stroke-width="0.8" stroke-linecap="round" stroke-linejoin="round" stroke-miterlimit="10" x1="54.622" y1="38.843" x2="54.222" y2="39.513"/>
<line fill="none" stroke="#0FB5E4" stroke-width="1.5" stroke-linecap="round" stroke-linejoin="round" stroke-miterlimit="10" x1="30.4" y1="25.413" x2="30.4" y2="68.619"/>
<path fill="none" stroke="#0FB5E4" stroke-width="1.5" stroke-linecap="round" stroke-linejoin="round" stroke-miterlimit="10" d="
	M52.617,68.619H28.231c-1.289,0-2.343-1.022-2.343-2.27V27.683c0-1.249,1.054-2.27,2.343-2.27h32.037
	c1.289,0,2.343,1.022,2.343,2.27v27.049"/>
<path fill="#81D7F2" stroke="#0FB5E4" stroke-width="1.4" stroke-linecap="round" stroke-linejoin="round" stroke-miterlimit="10" d="
	M62.011,54.917l3.024-6.889c0.273-0.562,1.103-0.726,1.844-0.366l0,0c0.741,0.361,1.123,1.115,0.85,1.677l-2.744,5.888"/>
<path fill="#F5FBFC" stroke="#0FB5E4" stroke-width="1.4" stroke-linecap="round" stroke-linejoin="round" stroke-miterlimit="10" d="
	M70.176,58.489h-2.844v-1.611c0-0.92-0.679-1.611-1.6-1.611h-6.665c-0.92,0-1.4,0.69-1.4,1.611v1.611h-3.044
	c-0.92,0-1.466,0.524-1.466,1.444v9.998c0,0.92,0.546,1.444,1.466,1.444h15.552c0.92,0,1.666-0.524,1.666-1.444v-9.998
	C71.843,59.013,71.097,58.489,70.176,58.489z"/>
<line fill="none" stroke="#0FB5E4" stroke-width="1.4" stroke-linecap="round" stroke-linejoin="round" stroke-miterlimit="10" x1="60.178" y1="58.267" x2="64.622" y2="58.267"/>
<path fill="#81D7F2" stroke="#0FB5E4" stroke-width="1.4" stroke-linecap="round" stroke-linejoin="round" stroke-miterlimit="10" d="
	M56.401,68.821h11.998c0.367,0,0.667-0.26,0.667-0.578V64.69c-0.664,0.292-1.428,0.466-2.139,0.482
	c-1.711,0.04-3.244-0.744-4.813-1.279c-1.325-0.451-2.784-0.737-4.217-0.587c-0.77,0.08-1.528,0.304-2.162,0.65v4.286
	C55.735,68.56,56.035,68.821,56.401,68.821z"/>
</svg>
