<?xml version="1.0" encoding="iso-8859-1"?>
<!-- Generator: Adobe Illustrator 20.0.0, SVG Export Plug-In . SVG Version: 6.00 Build 0)  -->
<svg version="1.1" id="Layer_1" xmlns="http://www.w3.org/2000/svg" xmlns:xlink="http://www.w3.org/1999/xlink" x="0px" y="0px"
	 viewBox="0 0 96 96" enable-background="new 0 0 96 96" xml:space="preserve">
<path fill="#D0D1D3" d="M48,12c-19.85,0-36,16.15-36,36s16.15,36,36,36s36-16.15,36-36S67.85,12,48,12L48,12z"/>
<path fill="#FFFFFF" d="M48,13c19.33,0,35,15.67,35,35S67.33,83,48,83S13,67.33,13,48S28.67,13,48,13"/>
<circle fill="#FFF9E1" cx="48" cy="48" r="34"/>
<path opacity="0.5" fill="#FFF2BB" enable-background="new    " d="M55.195,74.015c-18.778,0-34-15.222-34-34
	c0-6.755,1.978-13.045,5.375-18.337C18.953,27.914,14.089,37.388,14.089,48c0,18.778,15.222,34,34,34
	c12.022,0,22.579-6.246,28.625-15.663C70.852,71.134,63.361,74.015,55.195,74.015z"/>
<path fill="none" stroke="#F7DC69" stroke-width="1.8824" stroke-linecap="round" stroke-linejoin="round" stroke-miterlimit="10" d="
	M63.699,46.53h6.233v2.339c0,4.26-2.602,7.755-7.862,8.661"/>
<path fill="none" stroke="#F7DC69" stroke-width="1.8824" stroke-linecap="round" stroke-linejoin="round" stroke-miterlimit="10" d="
	M31.485,46.53h-6.233v2.339c0,4.26,2.602,7.755,7.862,8.661"/>
<path fill="#FFED94" d="M63.88,41.857v10.635c0,7.422-6.799,13.494-15.11,13.494h-2.312c-8.31,0-15.11-6.072-15.11-13.494V41.857
	H63.88z"/>
<path opacity="0.5" fill="#F2D557" enable-background="new    " d="M35.915,59.749h1.801c6.475,0,11.773-4.731,11.773-10.514v-7.377
	H63.88v10.635c0,7.422-6.799,13.494-15.11,13.494h-2.312c-5.423,0-10.2-2.586-12.867-6.445
	C34.344,59.677,35.12,59.749,35.915,59.749z"/>
<rect x="45.015" y="65.853" fill="#F9DD67" width="5.2" height="3.377"/>
<rect x="47.578" y="65.853" opacity="0.7" fill="#EAC93D" enable-background="new    " width="2.939" height="3.376"/>
<path fill="#F9DD67" d="M40.217,72.994c1.252-2.19,3.873-3.698,6.904-3.698s5.652,1.508,6.904,3.698"/>
<circle fill="#FFED94" cx="47.615" cy="21.434" r="4.387"/>
<path opacity="0.8" fill="#F2D557" enable-background="new    " d="M44.873,23.439c2.423,0,4.387-1.964,4.387-4.387
	c0-0.651-0.146-1.267-0.4-1.823c1.816,0.537,3.142,2.215,3.142,4.205c0,2.423-1.964,4.387-4.387,4.387
	c-1.772,0-3.294-1.052-3.987-2.564C44.023,23.374,44.44,23.439,44.873,23.439z"/>
<path fill="#FFED94" d="M63.518,34.047c-2.884-4.547-8.921-7.677-15.903-7.677s-13.019,3.13-15.904,7.677"/>
<path opacity="0.8" fill="#F2D557" enable-background="new    " d="M48.421,32.513c1.476-0.266,6.585-1.416,4.852-3.525
	c-0.719-0.875-2.623-1.78-4.861-2.603c6.643,0.228,12.332,3.29,15.106,7.662H38.149C41.698,33.554,46.289,32.897,48.421,32.513z"/>
<path fill="#FFED94" d="M29.795,41.075h35.64c1.359,0,2.47-1.112,2.47-2.47v-1.439c0-1.359-1.112-2.47-2.47-2.47h-35.64
	c-1.359,0-2.47,1.112-2.47,2.47v1.439C27.324,39.964,28.436,41.075,29.795,41.075z"/>
<path fill="#F2D557" d="M60.257,38.599c1.715,0,3.231-0.53,3.231-1.786c0-1.296-1.814-1.459-1.916-1.722h2.635
	c1.715,0,3.118,1.203,3.118,2.673l0,0c0,1.47-1.403,2.673-3.118,2.673H30.765c-1.375,0-2.548-0.774-2.96-1.838H60.257z"/>
<path opacity="0.9" fill="#F2D557" enable-background="new    " d="M55.323,52.492V41.857h8.558v10.635
	c0,7.422-6.799,13.494-15.11,13.494h-2.312c-1.07,0-2.114-0.102-3.123-0.294C50.161,64.398,55.323,58.958,55.323,52.492z"/>
<circle fill="none" stroke="#CEAA52" stroke-width="1.5" stroke-linecap="round" stroke-linejoin="round" stroke-miterlimit="10" cx="47.615" cy="21.434" r="4.387"/>
<line fill="none" stroke="#CEAA52" stroke-width="1.5" stroke-linecap="round" stroke-linejoin="round" stroke-miterlimit="10" x1="50.215" y1="66.719" x2="50.215" y2="69.55"/>
<line fill="none" stroke="#CEAA52" stroke-width="1.5" stroke-linecap="round" stroke-linejoin="round" stroke-miterlimit="10" x1="45.015" y1="69.55" x2="45.015" y2="66.719"/>
<path fill="#F9DD67" d="M56.934,77.047H38.335c-0.944,0-1.717-0.773-1.717-1.717v-0.254c0-0.944,0.773-1.717,1.717-1.717h18.599
	c0.944,0,1.717,0.773,1.717,1.717v0.254C58.651,76.274,57.878,77.047,56.934,77.047z"/>
<path opacity="0.9" fill="#EAC93D" enable-background="new    " d="M54.498,75.333c0.931,0,1.724-0.2,1.724-0.973
	c0-0.797-0.955-0.678-1.01-0.84h1.43c0.931,0,1.693,0.74,1.693,1.645l0,0c0,0.905-0.762,1.645-1.693,1.645H38.486
	c-0.747,0-1.383-0.822-1.607-1.477H54.498z"/>
<path opacity="0.7" fill="#EAC93D" enable-background="new    " d="M47.968,72.33c0.647-0.123,2.889-0.654,2.129-1.63
	c-0.315-0.405-1.151-0.823-2.133-1.204c2.914,0.105,5.411,1.521,6.628,3.543h-11.13C45.019,72.811,47.033,72.508,47.968,72.33z"/>
<path fill="none" stroke="#CEAA52" stroke-width="1.5" stroke-linecap="round" stroke-linejoin="round" stroke-miterlimit="10" d="
	M54.617,73.118c-1.27-2.017-3.928-3.405-7.002-3.405c-3.074,0-5.732,1.388-7.002,3.405"/>
<path fill="none" stroke="#CEAA52" stroke-width="1.5" stroke-linecap="round" stroke-linejoin="round" stroke-miterlimit="10" d="
	M56.904,77.017H38.326c-0.998,0-1.814-0.816-1.814-1.814l0,0c0-0.998,0.816-1.814,1.814-1.814h18.578
	c0.998,0,1.814,0.816,1.814,1.814l0,0C58.718,76.2,57.901,77.017,56.904,77.017z"/>
<path fill="none" stroke="#CEAA52" stroke-width="1.5" stroke-linecap="round" stroke-linejoin="round" stroke-miterlimit="10" d="
	M63.88,42.273v10.635c0,7.422-6.799,13.494-15.11,13.494h-2.312c-8.31,0-15.11-6.072-15.11-13.494V42.273"/>
<path fill="none" stroke="#CEAA52" stroke-width="1.5" stroke-linecap="round" stroke-linejoin="round" stroke-miterlimit="10" d="
	M64.633,41.149H30.596c-1.795,0-3.264-1.469-3.264-3.264l0,0c0-1.795,1.469-3.264,3.264-3.264h34.037
	c1.795,0,3.264,1.469,3.264,3.264l0,0C67.897,39.681,66.428,41.149,64.633,41.149z"/>
<path fill="none" stroke="#CEAA52" stroke-width="1.5" stroke-linecap="round" stroke-linejoin="round" stroke-miterlimit="10" d="
	M31.711,34.047c2.884-4.547,8.921-7.677,15.903-7.677s13.019,3.131,15.903,7.677"/>
<path fill="none" stroke="#CEAA52" stroke-width="1.5" stroke-linecap="round" stroke-linejoin="round" stroke-miterlimit="10" d="
	M30.977,45.563h-6.956v2.799c0,5.097,2.904,9.278,8.774,10.362"/>
<path fill="none" stroke="#CEAA52" stroke-width="1.5" stroke-linecap="round" stroke-linejoin="round" stroke-miterlimit="10" d="
	M64.252,45.563h6.956v2.799c0,5.097-2.904,9.278-8.774,10.362"/>
<line opacity="0.6" fill="none" stroke="#FFFFFF" stroke-width="1.5" stroke-linecap="round" stroke-linejoin="round" stroke-miterlimit="10" enable-background="new    " x1="59.773" y1="44.388" x2="59.773" y2="49.261"/>
<path fill="none" stroke="#FFFFFF" stroke-width="1.5" stroke-linecap="round" stroke-linejoin="round" stroke-miterlimit="10" d="
	M41.075,30.129c0,0-1.654,0.359-3.191,1.557"/>
<line fill="none" stroke="#CEAA52" stroke-width="1.5" stroke-linecap="round" stroke-linejoin="round" stroke-miterlimit="10" x1="26.585" y1="25.481" x2="28.667" y2="27.463"/>
<line fill="none" stroke="#CEAA52" stroke-width="1.5" stroke-linecap="round" stroke-linejoin="round" stroke-miterlimit="10" x1="31.143" y1="23.384" x2="31.58" y2="25.855"/>
<line fill="none" stroke="#CEAA52" stroke-width="1.5" stroke-linecap="round" stroke-linejoin="round" stroke-miterlimit="10" x1="24.673" y1="30.157" x2="27.39" y2="30.486"/>
<circle fill="#CEAA52" cx="37.882" cy="48.2" r="1.453"/>
<circle fill="#CEAA52" cx="51.601" cy="48.483" r="1.453"/>
<path fill="none" stroke="#CEAA52" stroke-width="1.5" stroke-linecap="round" stroke-linejoin="round" stroke-miterlimit="10" d="
	M46.949,54.582c-0.228,0.696-1.215,1.219-2.398,1.219c-1.103,0-2.036-0.456-2.342-1.082"/>
</svg>
